<svg width="28" height="26" viewBox="0 0 28 26" fill="none" xmlns="http://www.w3.org/2000/svg">
<path d="M26.8574 11.6433H5.96096L18.4681 0.786133C18.6681 0.611133 18.5467 0.286133 18.2824 0.286133H15.1217C14.9824 0.286133 14.8502 0.336133 14.7467 0.425418L1.25024 12.1361C1.12663 12.2433 1.02749 12.3757 0.959552 12.5246C0.891608 12.6734 0.856445 12.835 0.856445 12.9986C0.856445 13.1622 0.891608 13.3239 0.959552 13.4727C1.02749 13.6215 1.12663 13.754 1.25024 13.8611L14.8252 25.6433C14.8788 25.6897 14.9431 25.7147 15.011 25.7147H18.2788C18.5431 25.7147 18.6645 25.3861 18.4645 25.2147L5.96096 14.3576H26.8574C27.0145 14.3576 27.1431 14.229 27.1431 14.0718V11.929C27.1431 11.7718 27.0145 11.6433 26.8574 11.6433Z" fill="black"/>
</svg>
