<svg width="32" height="32" viewBox="0 0 32 32" fill="none" xmlns="http://www.w3.org/2000/svg">
<path d="M25.0607 15.0999L8.96072 2.52486C8.91865 2.49174 8.86809 2.47116 8.81485 2.46547C8.76161 2.45979 8.70784 2.46924 8.65973 2.49274C8.61162 2.51624 8.57111 2.55283 8.54286 2.59831C8.5146 2.64379 8.49975 2.69632 8.5 2.74986V5.51058C8.5 5.68558 8.58215 5.85343 8.71786 5.96057L21.575 15.9999L8.71786 26.0391C8.57857 26.1463 8.5 26.3141 8.5 26.4892V29.2499C8.5 29.4892 8.775 29.6213 8.96072 29.4749L25.0607 16.8999C25.1976 16.7931 25.3083 16.6566 25.3844 16.5006C25.4605 16.3447 25.5001 16.1734 25.5001 15.9999C25.5001 15.8263 25.4605 15.6551 25.3844 15.4991C25.3083 15.3431 25.1976 15.2066 25.0607 15.0999Z" fill="#636260"/>
</svg>
