<svg width="32" height="32" viewBox="0 0 32 32" fill="none" xmlns="http://www.w3.org/2000/svg">
<path d="M6.93928 15.0999L23.0393 2.52486C23.0814 2.49174 23.1319 2.47116 23.1852 2.46547C23.2384 2.45979 23.2922 2.46924 23.3403 2.49274C23.3884 2.51624 23.4289 2.55283 23.4571 2.59831C23.4854 2.64379 23.5003 2.69632 23.5 2.74986V5.51058C23.5 5.68558 23.4179 5.85343 23.2821 5.96057L10.425 15.9999L23.2821 26.0391C23.4214 26.1463 23.5 26.3141 23.5 26.4892V29.2499C23.5 29.4892 23.225 29.6213 23.0393 29.4749L6.93928 16.8999C6.80244 16.7931 6.69174 16.6566 6.6156 16.5006C6.53947 16.3447 6.49989 16.1734 6.49989 15.9999C6.49989 15.8263 6.53947 15.6551 6.6156 15.4991C6.69174 15.3431 6.80244 15.2066 6.93928 15.0999Z" fill="#636260"/>
</svg>
