<svg width="32" height="32" viewBox="0 0 32 32" fill="none" xmlns="http://www.w3.org/2000/svg">
<path d="M28.8571 14.6428H7.96071L20.4679 3.78564C20.6679 3.61064 20.5464 3.28564 20.2821 3.28564H17.1214C16.9821 3.28564 16.85 3.33564 16.7464 3.42493L3.25 15.1356C3.12639 15.2428 3.02725 15.3753 2.95931 15.5241C2.89136 15.6729 2.8562 15.8346 2.8562 15.9981C2.8562 16.1617 2.89136 16.3234 2.95931 16.4722C3.02725 16.621 3.12639 16.7535 3.25 16.8606L16.825 28.6428C16.8786 28.6892 16.9429 28.7142 17.0107 28.7142H20.2786C20.5429 28.7142 20.6643 28.3856 20.4643 28.2142L7.96071 17.3571H28.8571C29.0143 17.3571 29.1429 17.2285 29.1429 17.0714V14.9285C29.1429 14.7714 29.0143 14.6428 28.8571 14.6428Z" fill="black"/>
</svg>
