<svg width="18" height="18" viewBox="0 0 18 18" fill="none" xmlns="http://www.w3.org/2000/svg">
<path d="M5.60715 1.67941H5.42857C5.52679 1.67941 5.60715 1.59905 5.60715 1.50084V1.67941H12.3929V1.50084C12.3929 1.59905 12.4732 1.67941 12.5714 1.67941H12.3929V3.28655H14V1.50084C14 0.712891 13.3594 0.0722656 12.5714 0.0722656H5.42857C4.64063 0.0722656 4 0.712891 4 1.50084V3.28655H5.60715V1.67941ZM16.8571 3.28655H1.14286C0.74777 3.28655 0.428574 3.60575 0.428574 4.00084V4.71512C0.428574 4.81334 0.508931 4.89369 0.607145 4.89369H1.95536L2.5067 16.5678C2.54241 17.329 3.17188 17.9294 3.93304 17.9294H14.067C14.8304 17.9294 15.4576 17.3312 15.4933 16.5678L16.0446 4.89369H17.3929C17.4911 4.89369 17.5714 4.81334 17.5714 4.71512V4.00084C17.5714 3.60575 17.2522 3.28655 16.8571 3.28655ZM13.8951 16.3223H4.10491L3.56473 4.89369H14.4353L13.8951 16.3223Z" fill="#636260"/>
</svg>
