<svg width="20" height="20" viewBox="0 0 20 20" fill="none" xmlns="http://www.w3.org/2000/svg">
<path d="M15.6336 1.75655L15.6336 2.95745C15.6336 3.0512 15.7117 3.12932 15.8055 3.12932L17.1849 3.12932L17.1849 17.1851L3.12688 17.1851L3.12688 3.12709L4.50635 3.12709C4.6001 3.12709 4.67822 3.04897 4.67822 2.95522L4.67822 1.75432C4.67822 1.66057 4.60233 1.58245 4.50635 1.58245L2.26974 1.58245C1.89028 1.58245 1.58447 1.88825 1.58447 2.26772L1.58447 18.0423C1.58447 18.4217 1.89028 18.7275 2.26974 18.7275L18.0421 18.7275C18.4215 18.7275 18.7273 18.4217 18.7273 18.0423L18.7273 2.26995C18.7273 1.89048 18.4215 1.58468 18.0421 1.58468L15.8055 1.58468C15.7095 1.58468 15.6336 1.6628 15.6336 1.75655ZM10.0153 1.34137L7.51528 4.50879C7.42153 4.62709 7.50635 4.79897 7.6559 4.79897L9.35233 4.79897L9.35233 11.8079C9.35233 11.9061 9.43269 11.9865 9.5309 11.9865L10.7809 11.9865C10.8791 11.9865 10.9595 11.9061 10.9595 11.8079L10.9595 4.79897L12.6559 4.79897C12.8055 4.79897 12.8903 4.62486 12.7965 4.50879L10.2965 1.34137C10.2798 1.32003 10.2585 1.30277 10.2341 1.2909C10.2098 1.27903 10.183 1.27286 10.1559 1.27286C10.1288 1.27286 10.1021 1.27903 10.0777 1.2909C10.0533 1.30277 10.032 1.32003 10.0153 1.34137Z" fill="#636260" fill-opacity="0.5"/>
</svg>
