<svg width="18" height="18" viewBox="0 0 18 18" fill="none" xmlns="http://www.w3.org/2000/svg">
<path d="M3.32366 14.357C3.3683 14.357 3.41294 14.3525 3.45759 14.3458L7.21205 13.6874C7.25669 13.6784 7.29911 13.6583 7.33036 13.6249L16.7924 4.16281C16.8131 4.14216 16.8295 4.11763 16.8407 4.09063C16.8519 4.06362 16.8577 4.03467 16.8577 4.00544C16.8577 3.97621 16.8519 3.94726 16.8407 3.92026C16.8295 3.89325 16.8131 3.86873 16.7924 3.84808L13.0826 0.136021C13.0402 0.0936105 12.9844 0.0712891 12.9241 0.0712891C12.8638 0.0712891 12.808 0.0936105 12.7656 0.136021L3.30357 9.59807C3.27009 9.63156 3.25 9.67174 3.24107 9.71638L2.58259 13.4708C2.56087 13.5904 2.56863 13.7135 2.60519 13.8294C2.64175 13.9453 2.70601 14.0505 2.79241 14.136C2.93973 14.2789 3.125 14.357 3.32366 14.357ZM4.82812 10.4641L12.9241 2.3704L14.5603 4.00656L6.46428 12.1003L4.47991 12.4508L4.82812 10.4641ZM17.2143 16.232H0.785712C0.390623 16.232 0.0714264 16.5512 0.0714264 16.9463V17.7499C0.0714264 17.8481 0.151784 17.9284 0.249998 17.9284H17.75C17.8482 17.9284 17.9286 17.8481 17.9286 17.7499V16.9463C17.9286 16.5512 17.6094 16.232 17.2143 16.232Z" fill="#636260" fill-opacity="0.3"/>
</svg>
