<svg width="24" height="22" viewBox="0 0 24 22" fill="none" xmlns="http://www.w3.org/2000/svg">
<path d="M23.5231 10.3088C22.5815 8.32504 21.461 6.70719 20.1615 5.45522L18.7987 6.81808C19.91 7.88013 20.878 9.26951 21.7151 10.9999C19.4865 15.6124 16.3231 17.8034 11.9999 17.8034C10.7022 17.8034 9.50696 17.6036 8.41411 17.204L6.93741 18.6807C8.45527 19.3816 10.1428 19.732 11.9999 19.732C17.1481 19.732 20.9892 17.0508 23.5231 11.6883C23.625 11.4726 23.6778 11.237 23.6778 10.9985C23.6778 10.76 23.625 10.5245 23.5231 10.3088ZM21.8204 1.72022L20.6785 0.577007C20.6586 0.557084 20.6349 0.541278 20.6089 0.530495C20.5829 0.519711 20.555 0.51416 20.5269 0.51416C20.4987 0.51416 20.4708 0.519711 20.4448 0.530495C20.4188 0.541278 20.3952 0.557084 20.3753 0.577007L17.4457 3.50522C15.8305 2.68022 14.0153 2.26772 11.9999 2.26772C6.8517 2.26772 3.01062 4.94897 0.476696 10.3115C0.374845 10.5271 0.322021 10.7627 0.322021 11.0012C0.322021 11.2397 0.374845 11.4753 0.476696 11.6909C1.48902 13.8231 2.70777 15.5321 4.13295 16.818L1.29848 19.6517C1.25833 19.6918 1.23577 19.7463 1.23577 19.8031C1.23577 19.8599 1.25833 19.9144 1.29848 19.9546L2.44196 21.0981C2.48215 21.1382 2.53663 21.1608 2.59344 21.1608C2.65025 21.1608 2.70473 21.1382 2.74491 21.0981L21.8204 2.02344C21.8403 2.00353 21.8561 1.9799 21.8669 1.95389C21.8777 1.92787 21.8832 1.89999 21.8832 1.87183C21.8832 1.84367 21.8777 1.81578 21.8669 1.78977C21.8561 1.76376 21.8403 1.74012 21.8204 1.72022ZM2.28473 10.9999C4.51598 6.38736 7.67938 4.19629 11.9999 4.19629C13.4608 4.19629 14.7891 4.44701 15.9942 4.95674L14.1112 6.83978C13.2194 6.36396 12.1983 6.18737 11.1985 6.33606C10.1987 6.48474 9.27319 6.95083 8.55846 7.66556C7.84373 8.38029 7.37765 9.30581 7.22896 10.3056C7.08028 11.3054 7.25687 12.3265 7.73268 13.2183L5.49821 15.4527C4.26152 14.3612 3.19545 12.8824 2.28473 10.9999ZM8.89277 10.9999C8.89324 10.5275 9.00511 10.062 9.21931 9.64102C9.43351 9.22005 9.74399 8.85555 10.1255 8.57712C10.5071 8.29869 10.9489 8.11419 11.4151 8.0386C11.8814 7.96302 12.3589 7.99847 12.8088 8.1421L9.035 11.9159C8.94041 11.6198 8.89243 11.3107 8.89277 10.9999Z" fill="#636260"/>
<path d="M11.8928 13.9999C11.8001 13.9999 11.7088 13.9956 11.6182 13.9873L10.2034 15.4021C11.0543 15.728 11.9815 15.8004 12.8727 15.6106C13.764 15.4208 14.5811 14.9769 15.2255 14.3326C15.8698 13.6882 16.3137 12.8711 16.5035 11.9798C16.6933 11.0886 16.6209 10.1614 16.295 9.31049L14.8802 10.7253C14.8885 10.8158 14.8928 10.9072 14.8928 10.9999C14.893 11.3939 14.8155 11.7841 14.6648 12.1482C14.5141 12.5122 14.2932 12.843 14.0146 13.1217C13.7359 13.4003 13.4051 13.6212 13.0411 13.7719C12.677 13.9226 12.2868 14.0001 11.8928 13.9999Z" fill="#636260"/>
</svg>
