<svg width="50" height="50" viewBox="0 0 50 50" fill="none" xmlns="http://www.w3.org/2000/svg">
<path d="M44.1183 12.5335L32.1094 0.524554C31.7746 0.189732 31.3226 0 30.8482 0H7.14289C6.15517 0 5.35718 0.797991 5.35718 1.78571V48.2143C5.35718 49.202 6.15517 50 7.14289 50H42.8572C43.8449 50 44.6429 49.202 44.6429 48.2143V13.8002C44.6429 13.3259 44.4532 12.8683 44.1183 12.5335ZM40.5246 14.6205H30.0224V4.1183L40.5246 14.6205ZM40.625 45.9821H9.37503V4.01786H26.2277V16.0714C26.2277 16.693 26.4746 17.2892 26.9142 17.7287C27.3537 18.1682 27.9499 18.4152 28.5715 18.4152H40.625V45.9821ZM26.7857 22.7679C26.7857 22.5223 26.5849 22.3214 26.3393 22.3214H23.6607C23.4152 22.3214 23.2143 22.5223 23.2143 22.7679V28.7946H17.1875C16.942 28.7946 16.7411 28.9955 16.7411 29.2411V31.9196C16.7411 32.1652 16.942 32.3661 17.1875 32.3661H23.2143V38.3929C23.2143 38.6384 23.4152 38.8393 23.6607 38.8393H26.3393C26.5849 38.8393 26.7857 38.6384 26.7857 38.3929V32.3661H32.8125C33.0581 32.3661 33.259 32.1652 33.259 31.9196V29.2411C33.259 28.9955 33.0581 28.7946 32.8125 28.7946H26.7857V22.7679Z" fill="#636260"/>
</svg>
