<svg width="462" height="127" viewBox="0 0 462 127" fill="none" xmlns="http://www.w3.org/2000/svg">
<g filter="url(#filter0_dii_2965_5294)">
<path d="M11.59 6.94481H29.28V79.6568H71.492V96.7368H11.59V6.94481ZM86.9403 43.4228H104.02V96.7368H86.9403V43.4228ZM86.5743 24.5128C86.5743 21.9915 87.5503 19.9175 89.5023 18.2908C91.5356 16.6641 93.6909 15.8508 95.9683 15.8508C98.2456 15.8508 100.32 16.6641 102.19 18.2908C104.142 19.9175 105.118 21.9915 105.118 24.5128C105.118 27.0341 104.142 29.1081 102.19 30.7348C100.32 32.2801 98.2456 33.0528 95.9683 33.0528C93.6909 33.0528 91.5356 32.2801 89.5023 30.7348C87.5503 29.1081 86.5743 27.0341 86.5743 24.5128ZM137.104 43.4228L138.446 52.9388L138.202 52.0848C140.073 48.7501 142.716 46.0661 146.132 44.0328C149.548 41.9181 153.737 40.8608 158.698 40.8608C163.741 40.8608 167.93 42.3655 171.264 45.3748C174.68 48.3028 176.429 52.1255 176.51 56.8428V96.7368H159.43V63.1868C159.349 60.8281 158.698 58.9575 157.478 57.5748C156.34 56.1108 154.388 55.3788 151.622 55.3788C149.02 55.3788 146.742 56.2328 144.79 57.9408C142.838 59.6488 141.334 61.9668 140.276 64.8948C139.219 67.8228 138.69 71.1981 138.69 75.0208V96.7368H121.61V43.4228H137.104ZM194.048 96.7368V0.478812H211.128V96.7368H194.048ZM224.67 60.5028L248.826 96.7368H228.94L213.446 70.2628L224.67 60.5028ZM206.004 81.9748L204.296 65.7488L236.504 42.0808L246.874 51.2308L206.004 81.9748ZM281.053 98.2008C276.091 98.2008 271.659 97.0621 267.755 94.7848C263.851 92.4261 260.76 89.0508 258.483 84.6588C256.287 80.2668 255.189 75.0615 255.189 69.0428C255.189 63.0241 256.409 57.9001 258.849 53.6708C261.289 49.4415 264.623 46.2288 268.853 44.0328C273.082 41.8368 277.881 40.7388 283.249 40.7388C286.665 40.7388 289.918 41.2675 293.009 42.3248C296.181 43.3821 298.824 45.0088 300.939 47.2048V52.5728V0.478812H317.897V96.7368H300.817V86.3668L302.159 90.0268C299.393 92.3041 296.303 94.2561 292.887 95.8828C289.471 97.4281 285.526 98.2008 281.053 98.2008ZM286.665 83.8048C288.942 83.8048 290.935 83.5201 292.643 82.9508C294.432 82.3001 295.977 81.4055 297.279 80.2668C298.661 79.0468 299.841 77.5421 300.817 75.7528V62.6988C300.166 60.9095 299.149 59.4048 297.767 58.1848C296.465 56.8835 294.839 55.9075 292.887 55.2568C291.016 54.5248 288.942 54.1588 286.665 54.1588C284.143 54.1588 281.785 54.8095 279.589 56.1108C277.474 57.3308 275.766 59.0388 274.465 61.2348C273.163 63.4308 272.513 65.9521 272.513 68.7988C272.513 71.6455 273.163 74.2075 274.465 76.4848C275.766 78.7621 277.474 80.5515 279.589 81.8528C281.785 83.1541 284.143 83.8048 286.665 83.8048ZM361.698 98.2008C355.191 98.2008 349.66 96.9808 345.106 94.5408C340.632 92.1008 337.216 88.7255 334.858 84.4148C332.499 80.1041 331.32 75.1428 331.32 69.5308C331.32 64.1628 332.702 59.3235 335.468 55.0128C338.233 50.7021 341.934 47.2861 346.57 44.7648C351.206 42.1621 356.37 40.8608 362.064 40.8608C369.709 40.8608 375.972 43.0975 380.852 47.5708C385.813 51.9628 389.026 58.3475 390.49 66.7248L349.01 79.9008L345.228 70.6288L375.24 60.5028L371.702 62.0888C371.051 59.9741 369.872 58.1441 368.164 56.5988C366.537 54.9721 364.056 54.1588 360.722 54.1588C358.2 54.1588 355.964 54.7688 354.012 55.9888C352.141 57.1275 350.677 58.7948 349.62 60.9908C348.644 63.1055 348.156 65.6268 348.156 68.5548C348.156 71.8895 348.766 74.6955 349.986 76.9728C351.206 79.1688 352.873 80.8361 354.988 81.9748C357.102 83.1135 359.461 83.6828 362.064 83.6828C363.934 83.6828 365.724 83.3575 367.432 82.7068C369.221 82.0561 370.97 81.2021 372.678 80.1448L380.242 92.8328C377.395 94.4595 374.304 95.7608 370.97 96.7368C367.716 97.7128 364.626 98.2008 361.698 98.2008ZM424.918 97.8348L392.954 43.4228H413.206L431.384 80.2668L420.892 79.9008L436.63 43.4228H455.662L425.406 97.8348H424.918Z" fill="white"/>
</g>
<defs>
<filter id="filter0_dii_2965_5294" x="5.72406" y="-2.45425" width="455.804" height="118.253" filterUnits="userSpaceOnUse" color-interpolation-filters="sRGB">
<feFlood flood-opacity="0" result="BackgroundImageFix"/>
<feColorMatrix in="SourceAlpha" type="matrix" values="0 0 0 0 0 0 0 0 0 0 0 0 0 0 0 0 0 0 127 0" result="hardAlpha"/>
<feOffset dy="11.732"/>
<feGaussianBlur stdDeviation="2.93301"/>
<feComposite in2="hardAlpha" operator="out"/>
<feColorMatrix type="matrix" values="0 0 0 0 0 0 0 0 0 0 0 0 0 0 0 0 0 0 0.2 0"/>
<feBlend mode="normal" in2="BackgroundImageFix" result="effect1_dropShadow_2965_5294"/>
<feBlend mode="normal" in="SourceGraphic" in2="effect1_dropShadow_2965_5294" result="shape"/>
<feColorMatrix in="SourceAlpha" type="matrix" values="0 0 0 0 0 0 0 0 0 0 0 0 0 0 0 0 0 0 127 0" result="hardAlpha"/>
<feOffset dy="-2.93301"/>
<feGaussianBlur stdDeviation="2.19976"/>
<feComposite in2="hardAlpha" operator="arithmetic" k2="-1" k3="1"/>
<feColorMatrix type="matrix" values="0 0 0 0 0 0 0 0 0 0 0 0 0 0 0 0 0 0 0.2 0"/>
<feBlend mode="normal" in2="shape" result="effect2_innerShadow_2965_5294"/>
<feColorMatrix in="SourceAlpha" type="matrix" values="0 0 0 0 0 0 0 0 0 0 0 0 0 0 0 0 0 0 127 0" result="hardAlpha"/>
<feOffset dy="2.93301"/>
<feGaussianBlur stdDeviation="1.46651"/>
<feComposite in2="hardAlpha" operator="arithmetic" k2="-1" k3="1"/>
<feColorMatrix type="matrix" values="0 0 0 0 1 0 0 0 0 1 0 0 0 0 1 0 0 0 0.7 0"/>
<feBlend mode="normal" in2="effect2_innerShadow_2965_5294" result="effect3_innerShadow_2965_5294"/>
</filter>
</defs>
</svg>
