<svg width="191" height="61" viewBox="0 0 191 61" fill="none" xmlns="http://www.w3.org/2000/svg">
<g filter="url(#filter0_dii_2744_3600)">
<path d="M4.12207 3.2H11.3721V33H28.6721V40H4.12207V3.2ZM35.0033 18.15H42.0033V40H35.0033V18.15ZM34.8533 10.4C34.8533 9.36667 35.2533 8.51667 36.0533 7.85C36.8867 7.18333 37.77 6.85 38.7033 6.85C39.6367 6.85 40.4867 7.18333 41.2533 7.85C42.0533 8.51667 42.4533 9.36667 42.4533 10.4C42.4533 11.4333 42.0533 12.2833 41.2533 12.95C40.4867 13.5833 39.6367 13.9 38.7033 13.9C37.77 13.9 36.8867 13.5833 36.0533 12.95C35.2533 12.2833 34.8533 11.4333 34.8533 10.4ZM55.5623 18.15L56.1123 22.05L56.0123 21.7C56.779 20.3333 57.8623 19.2333 59.2623 18.4C60.6623 17.5333 62.379 17.1 64.4123 17.1C66.479 17.1 68.1956 17.7167 69.5623 18.95C70.9623 20.15 71.679 21.7167 71.7123 23.65V40H64.7123V26.25C64.679 25.2833 64.4123 24.5167 63.9123 23.95C63.4456 23.35 62.6456 23.05 61.5123 23.05C60.4456 23.05 59.5123 23.4 58.7123 24.1C57.9123 24.8 57.2956 25.75 56.8623 26.95C56.429 28.15 56.2123 29.5333 56.2123 31.1V40H49.2123V18.15H55.5623ZM78.8998 40V0.549998H85.8998V40H78.8998ZM91.4498 25.15L101.35 40H93.1998L86.8498 29.15L91.4498 25.15ZM83.7998 33.95L83.0998 27.3L96.2998 17.6L100.55 21.35L83.7998 33.95ZM114.558 40.6C112.524 40.6 110.708 40.1333 109.108 39.2C107.508 38.2333 106.241 36.85 105.308 35.05C104.408 33.25 103.958 31.1167 103.958 28.65C103.958 26.1833 104.458 24.0833 105.458 22.35C106.458 20.6167 107.824 19.3 109.558 18.4C111.291 17.5 113.258 17.05 115.458 17.05C116.858 17.05 118.191 17.2667 119.458 17.7C120.758 18.1333 121.841 18.8 122.708 19.7V21.9V0.549998H129.658V40H122.658V35.75L123.208 37.25C122.074 38.1833 120.808 38.9833 119.408 39.65C118.008 40.2833 116.391 40.6 114.558 40.6ZM116.858 34.7C117.791 34.7 118.608 34.5833 119.308 34.35C120.041 34.0833 120.674 33.7167 121.208 33.25C121.774 32.75 122.258 32.1333 122.658 31.4V26.05C122.391 25.3167 121.974 24.7 121.408 24.2C120.874 23.6667 120.208 23.2667 119.408 23C118.641 22.7 117.791 22.55 116.858 22.55C115.824 22.55 114.858 22.8167 113.958 23.35C113.091 23.85 112.391 24.55 111.858 25.45C111.324 26.35 111.058 27.3833 111.058 28.55C111.058 29.7167 111.324 30.7667 111.858 31.7C112.391 32.6333 113.091 33.3667 113.958 33.9C114.858 34.4333 115.824 34.7 116.858 34.7ZM147.609 40.6C144.942 40.6 142.675 40.1 140.809 39.1C138.975 38.1 137.575 36.7167 136.609 34.95C135.642 33.1833 135.159 31.15 135.159 28.85C135.159 26.65 135.725 24.6667 136.859 22.9C137.992 21.1333 139.509 19.7333 141.409 18.7C143.309 17.6333 145.425 17.1 147.759 17.1C150.892 17.1 153.459 18.0167 155.459 19.85C157.492 21.65 158.809 24.2667 159.409 27.7L142.409 33.1L140.859 29.3L153.159 25.15L151.709 25.8C151.442 24.9333 150.959 24.1833 150.259 23.55C149.592 22.8833 148.575 22.55 147.209 22.55C146.175 22.55 145.259 22.8 144.459 23.3C143.692 23.7667 143.092 24.45 142.659 25.35C142.259 26.2167 142.059 27.25 142.059 28.45C142.059 29.8167 142.309 30.9667 142.809 31.9C143.309 32.8 143.992 33.4833 144.859 33.95C145.725 34.4167 146.692 34.65 147.759 34.65C148.525 34.65 149.259 34.5167 149.959 34.25C150.692 33.9833 151.409 33.6333 152.109 33.2L155.209 38.4C154.042 39.0667 152.775 39.6 151.409 40C150.075 40.4 148.809 40.6 147.609 40.6ZM173.519 40.45L160.419 18.15H168.719L176.169 33.25L171.869 33.1L178.319 18.15H186.119L173.719 40.45H173.519Z" fill="white"/>
</g>
<defs>
<filter id="filter0_dii_2744_3600" x="0.12207" y="-0.450012" width="189.997" height="61.05" filterUnits="userSpaceOnUse" color-interpolation-filters="sRGB">
<feFlood flood-opacity="0" result="BackgroundImageFix"/>
<feColorMatrix in="SourceAlpha" type="matrix" values="0 0 0 0 0 0 0 0 0 0 0 0 0 0 0 0 0 0 127 0" result="hardAlpha"/>
<feOffset dy="16"/>
<feGaussianBlur stdDeviation="2"/>
<feComposite in2="hardAlpha" operator="out"/>
<feColorMatrix type="matrix" values="0 0 0 0 0 0 0 0 0 0 0 0 0 0 0 0 0 0 0.2 0"/>
<feBlend mode="normal" in2="BackgroundImageFix" result="effect1_dropShadow_2744_3600"/>
<feBlend mode="normal" in="SourceGraphic" in2="effect1_dropShadow_2744_3600" result="shape"/>
<feColorMatrix in="SourceAlpha" type="matrix" values="0 0 0 0 0 0 0 0 0 0 0 0 0 0 0 0 0 0 127 0" result="hardAlpha"/>
<feOffset dy="-1"/>
<feGaussianBlur stdDeviation="0.75"/>
<feComposite in2="hardAlpha" operator="arithmetic" k2="-1" k3="1"/>
<feColorMatrix type="matrix" values="0 0 0 0 0 0 0 0 0 0 0 0 0 0 0 0 0 0 0.2 0"/>
<feBlend mode="normal" in2="shape" result="effect2_innerShadow_2744_3600"/>
<feColorMatrix in="SourceAlpha" type="matrix" values="0 0 0 0 0 0 0 0 0 0 0 0 0 0 0 0 0 0 127 0" result="hardAlpha"/>
<feOffset dy="1"/>
<feGaussianBlur stdDeviation="0.5"/>
<feComposite in2="hardAlpha" operator="arithmetic" k2="-1" k3="1"/>
<feColorMatrix type="matrix" values="0 0 0 0 1 0 0 0 0 1 0 0 0 0 1 0 0 0 0.7 0"/>
<feBlend mode="normal" in2="effect2_innerShadow_2744_3600" result="effect3_innerShadow_2744_3600"/>
</filter>
</defs>
</svg>
