<svg width="126" height="33" viewBox="0 0 126 33" fill="none" xmlns="http://www.w3.org/2000/svg">
<g filter="url(#filter0_dii_3905_6571)">
<path d="M2.04 2.448H6.68V21.52H17.752V26H2.04V2.448ZM21.804 12.016H26.284V26H21.804V12.016ZM21.708 7.056C21.708 6.39467 21.964 5.85067 22.476 5.424C23.0093 4.99733 23.5747 4.784 24.172 4.784C24.7693 4.784 25.3133 4.99733 25.804 5.424C26.316 5.85067 26.572 6.39467 26.572 7.056C26.572 7.71733 26.316 8.26133 25.804 8.688C25.3133 9.09333 24.7693 9.296 24.172 9.296C23.5747 9.296 23.0093 9.09333 22.476 8.688C21.964 8.26133 21.708 7.71733 21.708 7.056ZM34.9618 12.016L35.3138 14.512L35.2498 14.288C35.7404 13.4133 36.4338 12.7093 37.3298 12.176C38.2258 11.6213 39.3244 11.344 40.6258 11.344C41.9484 11.344 43.0471 11.7387 43.9218 12.528C44.8178 13.296 45.2764 14.2987 45.2978 15.536V26H40.8178V17.2C40.7964 16.5813 40.6258 16.0907 40.3058 15.728C40.0071 15.344 39.4951 15.152 38.7698 15.152C38.0871 15.152 37.4898 15.376 36.9778 15.824C36.4658 16.272 36.0711 16.88 35.7938 17.648C35.5164 18.416 35.3778 19.3013 35.3778 20.304V26H30.8978V12.016H34.9618ZM49.8978 26V0.751999H54.3778V26H49.8978ZM57.9298 16.496L64.2658 26H59.0498L54.9858 19.056L57.9298 16.496ZM53.0338 22.128L52.5858 17.872L61.0338 11.664L63.7537 14.064L53.0338 22.128ZM68.1025 26V2.448H75.1425C77.5105 2.448 79.5265 2.8 81.1905 3.504C82.8545 4.208 84.1878 5.14667 85.1905 6.32C86.2145 7.49333 86.9612 8.80533 87.4305 10.256C87.8998 11.7067 88.1345 13.168 88.1345 14.64C88.1345 16.3893 87.8145 17.968 87.1745 19.376C86.5558 20.7627 85.7025 21.9573 84.6145 22.96C83.5265 23.9413 82.2678 24.6987 80.8385 25.232C79.4092 25.744 77.8945 26 76.2945 26H68.1025ZM72.7425 21.52H75.4945C76.6678 21.52 77.7345 21.3707 78.6945 21.072C79.6545 20.752 80.4758 20.2933 81.1585 19.696C81.8625 19.0987 82.3958 18.352 82.7585 17.456C83.1425 16.5387 83.3345 15.4933 83.3345 14.32C83.3345 12.784 83.0785 11.536 82.5665 10.576C82.0758 9.59467 81.4572 8.83733 80.7105 8.304C79.9852 7.77067 79.2385 7.408 78.4705 7.216C77.7025 7.00267 77.0518 6.896 76.5185 6.896H72.7425V21.52ZM98.934 26.384C97.2273 26.384 95.7767 26.064 94.582 25.424C93.4087 24.784 92.5127 23.8987 91.894 22.768C91.2753 21.6373 90.966 20.336 90.966 18.864C90.966 17.456 91.3287 16.1867 92.054 15.056C92.7793 13.9253 93.75 13.0293 94.966 12.368C96.182 11.6853 97.5367 11.344 99.03 11.344C101.035 11.344 102.678 11.9307 103.958 13.104C105.259 14.256 106.102 15.9307 106.486 18.128L95.606 21.584L94.614 19.152L102.486 16.496L101.558 16.912C101.387 16.3573 101.078 15.8773 100.63 15.472C100.203 15.0453 99.5527 14.832 98.678 14.832C98.0167 14.832 97.43 14.992 96.918 15.312C96.4273 15.6107 96.0433 16.048 95.766 16.624C95.51 17.1787 95.382 17.84 95.382 18.608C95.382 19.4827 95.542 20.2187 95.862 20.816C96.182 21.392 96.6193 21.8293 97.174 22.128C97.7287 22.4267 98.3473 22.576 99.03 22.576C99.5207 22.576 99.99 22.4907 100.438 22.32C100.907 22.1493 101.366 21.9253 101.814 21.648L103.798 24.976C103.051 25.4027 102.241 25.744 101.366 26C100.513 26.256 99.702 26.384 98.934 26.384ZM115.517 26.288L107.133 12.016H112.445L117.213 21.68L114.461 21.584L118.589 12.016H123.581L115.645 26.288H115.517Z" fill="black"/>
</g>
<defs>
<filter id="filter0_dii_3905_6571" x="0.0390625" y="-0.248047" width="125.541" height="32.6321" filterUnits="userSpaceOnUse" color-interpolation-filters="sRGB">
<feFlood flood-opacity="0" result="BackgroundImageFix"/>
<feColorMatrix in="SourceAlpha" type="matrix" values="0 0 0 0 0 0 0 0 0 0 0 0 0 0 0 0 0 0 127 0" result="hardAlpha"/>
<feOffset dy="4"/>
<feGaussianBlur stdDeviation="1"/>
<feComposite in2="hardAlpha" operator="out"/>
<feColorMatrix type="matrix" values="0 0 0 0 0 0 0 0 0 0 0 0 0 0 0 0 0 0 0.2 0"/>
<feBlend mode="normal" in2="BackgroundImageFix" result="effect1_dropShadow_3905_6571"/>
<feBlend mode="normal" in="SourceGraphic" in2="effect1_dropShadow_3905_6571" result="shape"/>
<feColorMatrix in="SourceAlpha" type="matrix" values="0 0 0 0 0 0 0 0 0 0 0 0 0 0 0 0 0 0 127 0" result="hardAlpha"/>
<feOffset dy="-1"/>
<feGaussianBlur stdDeviation="0.75"/>
<feComposite in2="hardAlpha" operator="arithmetic" k2="-1" k3="1"/>
<feColorMatrix type="matrix" values="0 0 0 0 0 0 0 0 0 0 0 0 0 0 0 0 0 0 0.2 0"/>
<feBlend mode="normal" in2="shape" result="effect2_innerShadow_3905_6571"/>
<feColorMatrix in="SourceAlpha" type="matrix" values="0 0 0 0 0 0 0 0 0 0 0 0 0 0 0 0 0 0 127 0" result="hardAlpha"/>
<feOffset dy="1"/>
<feGaussianBlur stdDeviation="0.5"/>
<feComposite in2="hardAlpha" operator="arithmetic" k2="-1" k3="1"/>
<feColorMatrix type="matrix" values="0 0 0 0 1 0 0 0 0 1 0 0 0 0 1 0 0 0 0.7 0"/>
<feBlend mode="normal" in2="effect2_innerShadow_3905_6571" result="effect3_innerShadow_3905_6571"/>
</filter>
</defs>
</svg>
