<svg width="40" height="40" viewBox="0 0 40 40" fill="none" xmlns="http://www.w3.org/2000/svg">
<g filter="url(#filter0_ii_2157_934)">
<rect width="40" height="40" rx="20" fill="url(#paint0_linear_2157_934)"/>
<g filter="url(#filter1_di_2157_934)">
<path d="M14.8941 11.6458C14.8941 12.9967 13.7985 14.0917 12.4471 14.0917C11.0956 14.0917 10 12.9967 10 11.6458C10 10.295 11.0956 9.19998 12.4471 9.19998C13.7985 9.19998 14.8941 10.295 14.8941 11.6458Z" fill="white"/>
<path d="M10.6118 15.4369C10.4766 15.4369 10.3671 15.5464 10.3671 15.6815V28.1554C10.3671 28.2905 10.4766 28.4 10.6118 28.4H14.2824C14.4175 28.4 14.5271 28.2905 14.5271 28.1554V15.6815C14.5271 15.5464 14.4175 15.4369 14.2824 15.4369H10.6118Z" fill="white"/>
<path d="M21.3788 15.6815C21.3788 15.5464 21.2693 15.4369 21.1341 15.4369H17.2188C17.0837 15.4369 16.9741 15.5464 16.9741 15.6815V28.1554C16.9741 28.2905 17.0837 28.4 17.2188 28.4H21.1341C21.2693 28.4 21.3788 28.2905 21.3788 28.1554V21.4907C21.3788 20.9239 21.4457 20.3425 21.7417 19.859C23.1447 17.5673 26.0894 18.8016 26.0894 20.6955C26.0894 21.9911 26.1371 27.003 26.1483 28.1604C26.1496 28.2946 26.2587 28.3999 26.3929 28.3999H30.5553C30.6904 28.3999 30.8 28.2904 30.8 28.1553V19.8394C30.8 15.0089 24.1318 13.6635 21.3788 17.2101V15.6815Z" fill="white"/>
</g>
</g>
<defs>
<filter id="filter0_ii_2157_934" x="0" y="-1.2" width="40" height="42.8" filterUnits="userSpaceOnUse" color-interpolation-filters="sRGB">
<feFlood flood-opacity="0" result="BackgroundImageFix"/>
<feBlend mode="normal" in="SourceGraphic" in2="BackgroundImageFix" result="shape"/>
<feColorMatrix in="SourceAlpha" type="matrix" values="0 0 0 0 0 0 0 0 0 0 0 0 0 0 0 0 0 0 127 0" result="hardAlpha"/>
<feOffset dy="-1.2"/>
<feGaussianBlur stdDeviation="0.8"/>
<feComposite in2="hardAlpha" operator="arithmetic" k2="-1" k3="1"/>
<feColorMatrix type="matrix" values="0 0 0 0 0 0 0 0 0 0.332714 0 0 0 0 0.475306 0 0 0 0.4 0"/>
<feBlend mode="normal" in2="shape" result="effect1_innerShadow_2157_934"/>
<feColorMatrix in="SourceAlpha" type="matrix" values="0 0 0 0 0 0 0 0 0 0 0 0 0 0 0 0 0 0 127 0" result="hardAlpha"/>
<feOffset dy="1.6"/>
<feGaussianBlur stdDeviation="0.8"/>
<feComposite in2="hardAlpha" operator="arithmetic" k2="-1" k3="1"/>
<feColorMatrix type="matrix" values="0 0 0 0 1 0 0 0 0 1 0 0 0 0 1 0 0 0 0.35 0"/>
<feBlend mode="normal" in2="effect1_innerShadow_2157_934" result="effect2_innerShadow_2157_934"/>
</filter>
<filter id="filter1_di_2157_934" x="7.6" y="8.39998" width="25.5998" height="24.8" filterUnits="userSpaceOnUse" color-interpolation-filters="sRGB">
<feFlood flood-opacity="0" result="BackgroundImageFix"/>
<feColorMatrix in="SourceAlpha" type="matrix" values="0 0 0 0 0 0 0 0 0 0 0 0 0 0 0 0 0 0 127 0" result="hardAlpha"/>
<feOffset dy="2.4"/>
<feGaussianBlur stdDeviation="1.2"/>
<feComposite in2="hardAlpha" operator="out"/>
<feColorMatrix type="matrix" values="0 0 0 0 0.0923332 0 0 0 0 0.340102 0 0 0 0 0.479472 0 0 0 0.25 0"/>
<feBlend mode="normal" in2="BackgroundImageFix" result="effect1_dropShadow_2157_934"/>
<feBlend mode="normal" in="SourceGraphic" in2="effect1_dropShadow_2157_934" result="shape"/>
<feColorMatrix in="SourceAlpha" type="matrix" values="0 0 0 0 0 0 0 0 0 0 0 0 0 0 0 0 0 0 127 0" result="hardAlpha"/>
<feOffset dy="-0.8"/>
<feGaussianBlur stdDeviation="0.4"/>
<feComposite in2="hardAlpha" operator="arithmetic" k2="-1" k3="1"/>
<feColorMatrix type="matrix" values="0 0 0 0 0 0 0 0 0 0 0 0 0 0 0 0 0 0 0.15 0"/>
<feBlend mode="normal" in2="shape" result="effect2_innerShadow_2157_934"/>
</filter>
<linearGradient id="paint0_linear_2157_934" x1="20" y1="0" x2="20" y2="40" gradientUnits="userSpaceOnUse">
<stop offset="0.196779" stop-color="#81CAFF"/>
<stop offset="1" stop-color="#007EF2"/>
</linearGradient>
</defs>
</svg>
