<svg width="127" height="34" viewBox="0 0 127 34" fill="none" xmlns="http://www.w3.org/2000/svg">
<g filter="url(#filter0_dii_1296_6068)">
<path d="M3.04 2.448H7.68V21.52H18.752V26H3.04V2.448ZM22.804 12.016H27.284V26H22.804V12.016ZM22.708 7.056C22.708 6.39467 22.964 5.85067 23.476 5.424C24.0093 4.99733 24.5747 4.784 25.172 4.784C25.7693 4.784 26.3133 4.99733 26.804 5.424C27.316 5.85067 27.572 6.39467 27.572 7.056C27.572 7.71733 27.316 8.26133 26.804 8.688C26.3133 9.09333 25.7693 9.296 25.172 9.296C24.5747 9.296 24.0093 9.09333 23.476 8.688C22.964 8.26133 22.708 7.71733 22.708 7.056ZM35.9618 12.016L36.3138 14.512L36.2498 14.288C36.7404 13.4133 37.4338 12.7093 38.3298 12.176C39.2258 11.6213 40.3244 11.344 41.6258 11.344C42.9484 11.344 44.0471 11.7387 44.9218 12.528C45.8178 13.296 46.2764 14.2987 46.2978 15.536V26H41.8178V17.2C41.7964 16.5813 41.6258 16.0907 41.3058 15.728C41.0071 15.344 40.4951 15.152 39.7698 15.152C39.0871 15.152 38.4898 15.376 37.9778 15.824C37.4658 16.272 37.0711 16.88 36.7938 17.648C36.5164 18.416 36.3778 19.3013 36.3778 20.304V26H31.8978V12.016H35.9618ZM50.8978 26V0.751999H55.3778V26H50.8978ZM58.9298 16.496L65.2658 26H60.0498L55.9858 19.056L58.9298 16.496ZM54.0338 22.128L53.5858 17.872L62.0338 11.664L64.7537 14.064L54.0338 22.128ZM69.1025 26V2.448H76.1425C78.5105 2.448 80.5265 2.8 82.1905 3.504C83.8545 4.208 85.1878 5.14667 86.1905 6.32C87.2145 7.49333 87.9612 8.80533 88.4305 10.256C88.8998 11.7067 89.1345 13.168 89.1345 14.64C89.1345 16.3893 88.8145 17.968 88.1745 19.376C87.5558 20.7627 86.7025 21.9573 85.6145 22.96C84.5265 23.9413 83.2678 24.6987 81.8385 25.232C80.4092 25.744 78.8945 26 77.2945 26H69.1025ZM73.7425 21.52H76.4945C77.6678 21.52 78.7345 21.3707 79.6945 21.072C80.6545 20.752 81.4758 20.2933 82.1585 19.696C82.8625 19.0987 83.3958 18.352 83.7585 17.456C84.1425 16.5387 84.3345 15.4933 84.3345 14.32C84.3345 12.784 84.0785 11.536 83.5665 10.576C83.0758 9.59467 82.4572 8.83733 81.7105 8.304C80.9852 7.77067 80.2385 7.408 79.4705 7.216C78.7025 7.00267 78.0518 6.896 77.5185 6.896H73.7425V21.52ZM99.934 26.384C98.2273 26.384 96.7767 26.064 95.582 25.424C94.4087 24.784 93.5127 23.8987 92.894 22.768C92.2753 21.6373 91.966 20.336 91.966 18.864C91.966 17.456 92.3287 16.1867 93.054 15.056C93.7793 13.9253 94.75 13.0293 95.966 12.368C97.182 11.6853 98.5367 11.344 100.03 11.344C102.035 11.344 103.678 11.9307 104.958 13.104C106.259 14.256 107.102 15.9307 107.486 18.128L96.606 21.584L95.614 19.152L103.486 16.496L102.558 16.912C102.387 16.3573 102.078 15.8773 101.63 15.472C101.203 15.0453 100.553 14.832 99.678 14.832C99.0167 14.832 98.43 14.992 97.918 15.312C97.4273 15.6107 97.0433 16.048 96.766 16.624C96.51 17.1787 96.382 17.84 96.382 18.608C96.382 19.4827 96.542 20.2187 96.862 20.816C97.182 21.392 97.6193 21.8293 98.174 22.128C98.7287 22.4267 99.3473 22.576 100.03 22.576C100.521 22.576 100.99 22.4907 101.438 22.32C101.907 22.1493 102.366 21.9253 102.814 21.648L104.798 24.976C104.051 25.4027 103.241 25.744 102.366 26C101.513 26.256 100.702 26.384 99.934 26.384ZM116.517 26.288L108.133 12.016H113.445L118.213 21.68L115.461 21.584L119.589 12.016H124.581L116.645 26.288H116.517Z" fill="white"/>
</g>
<defs>
<filter id="filter0_dii_1296_6068" x="1.04004" y="-0.248047" width="125.541" height="32.6318" filterUnits="userSpaceOnUse" color-interpolation-filters="sRGB">
<feFlood flood-opacity="0" result="BackgroundImageFix"/>
<feColorMatrix in="SourceAlpha" type="matrix" values="0 0 0 0 0 0 0 0 0 0 0 0 0 0 0 0 0 0 127 0" result="hardAlpha"/>
<feOffset dy="4"/>
<feGaussianBlur stdDeviation="1"/>
<feComposite in2="hardAlpha" operator="out"/>
<feColorMatrix type="matrix" values="0 0 0 0 0 0 0 0 0 0 0 0 0 0 0 0 0 0 0.2 0"/>
<feBlend mode="normal" in2="BackgroundImageFix" result="effect1_dropShadow_1296_6068"/>
<feBlend mode="normal" in="SourceGraphic" in2="effect1_dropShadow_1296_6068" result="shape"/>
<feColorMatrix in="SourceAlpha" type="matrix" values="0 0 0 0 0 0 0 0 0 0 0 0 0 0 0 0 0 0 127 0" result="hardAlpha"/>
<feOffset dy="-1"/>
<feGaussianBlur stdDeviation="0.75"/>
<feComposite in2="hardAlpha" operator="arithmetic" k2="-1" k3="1"/>
<feColorMatrix type="matrix" values="0 0 0 0 0 0 0 0 0 0 0 0 0 0 0 0 0 0 0.2 0"/>
<feBlend mode="normal" in2="shape" result="effect2_innerShadow_1296_6068"/>
<feColorMatrix in="SourceAlpha" type="matrix" values="0 0 0 0 0 0 0 0 0 0 0 0 0 0 0 0 0 0 127 0" result="hardAlpha"/>
<feOffset dy="1"/>
<feGaussianBlur stdDeviation="0.5"/>
<feComposite in2="hardAlpha" operator="arithmetic" k2="-1" k3="1"/>
<feColorMatrix type="matrix" values="0 0 0 0 1 0 0 0 0 1 0 0 0 0 1 0 0 0 0.7 0"/>
<feBlend mode="normal" in2="effect2_innerShadow_1296_6068" result="effect3_innerShadow_1296_6068"/>
</filter>
</defs>
</svg>
