<svg width="15" height="17" viewBox="0 0 15 17" fill="none" xmlns="http://www.w3.org/2000/svg">
<path d="M14.3008 7.97133H12.9347V3.47133C12.9347 2.05102 11.7836 0.899902 10.3633 0.899902H5.38114C3.96083 0.899902 2.80971 2.05102 2.80971 3.47133V7.97133H1.44364C1.08806 7.97133 0.800781 8.25861 0.800781 8.61419V16.3285C0.800781 16.6841 1.08806 16.9713 1.44364 16.9713H14.3008C14.6564 16.9713 14.9436 16.6841 14.9436 16.3285V8.61419C14.9436 8.25861 14.6564 7.97133 14.3008 7.97133ZM4.25614 3.47133C4.25614 2.85057 4.76038 2.34633 5.38114 2.34633H10.3633C10.984 2.34633 11.4883 2.85057 11.4883 3.47133V7.97133H4.25614V3.47133ZM13.4972 15.5249H2.24721V9.41776H13.4972V15.5249ZM7.30971 12.7325V13.7972C7.30971 13.8856 7.38203 13.9579 7.47042 13.9579H8.274C8.36239 13.9579 8.43471 13.8856 8.43471 13.7972V12.7325C8.60054 12.6134 8.72432 12.4448 8.78822 12.2509C8.85213 12.0571 8.85287 11.8479 8.79033 11.6536C8.72779 11.4592 8.60521 11.2898 8.44022 11.1695C8.27523 11.0493 8.07635 10.9845 7.87221 10.9845C7.66807 10.9845 7.46919 11.0493 7.3042 11.1695C7.13921 11.2898 7.01663 11.4592 6.95409 11.6536C6.89156 11.8479 6.89229 12.0571 6.9562 12.2509C7.0201 12.4448 7.14388 12.6134 7.30971 12.7325Z" fill="#DB6400"/>
</svg>
