<svg width="90" height="27" viewBox="0 0 90 27" fill="none" xmlns="http://www.w3.org/2000/svg">
<g filter="url(#filter0_dii_3905_16836)">
<path d="M3.08999 2.00731H6.27997V15.1192H13.8919V18.1992H3.08999V2.00731ZM16.6777 8.58527H19.7576V18.1992H16.6777V8.58527ZM16.6117 5.17529C16.6117 4.72063 16.7877 4.34663 17.1397 4.0533C17.5063 3.75996 17.895 3.6133 18.3057 3.6133C18.7163 3.6133 19.0903 3.75996 19.4276 4.0533C19.7796 4.34663 19.9556 4.72063 19.9556 5.17529C19.9556 5.62995 19.7796 6.00395 19.4276 6.29728C19.0903 6.57595 18.7163 6.71528 18.3057 6.71528C17.895 6.71528 17.5063 6.57595 17.1397 6.29728C16.7877 6.00395 16.6117 5.62995 16.6117 5.17529ZM25.7236 8.58527L25.9656 10.3013L25.9216 10.1473C26.2589 9.54593 26.7356 9.06194 27.3516 8.69527C27.9676 8.31394 28.7229 8.12327 29.6175 8.12327C30.5269 8.12327 31.2822 8.3946 31.8835 8.93727C32.4995 9.46527 32.8149 10.1546 32.8295 11.0053V18.1992H29.7495V12.1493C29.7349 11.7239 29.6175 11.3866 29.3975 11.1373C29.1922 10.8733 28.8402 10.7413 28.3416 10.7413C27.8722 10.7413 27.4616 10.8953 27.1096 11.2033C26.7576 11.5113 26.4862 11.9293 26.2956 12.4572C26.1049 12.9852 26.0096 13.5939 26.0096 14.2832V18.1992H22.9296V8.58527H25.7236ZM35.992 18.1992V0.841313H39.072V18.1992H35.992ZM41.514 11.6653L45.87 18.1992H42.284L39.49 13.4252L41.514 11.6653ZM38.148 15.5372L37.84 12.6112L43.648 8.34327L45.518 9.99326L38.148 15.5372ZM48.5077 18.1992V2.00731H53.3477C54.9757 2.00731 56.3617 2.2493 57.5057 2.7333C58.6497 3.2173 59.5663 3.86263 60.2556 4.66929C60.9596 5.47595 61.473 6.37795 61.7956 7.37528C62.1183 8.37261 62.2796 9.37727 62.2796 10.3893C62.2796 11.5919 62.0596 12.6772 61.6196 13.6452C61.1943 14.5986 60.6076 15.4199 59.8596 16.1092C59.1117 16.7839 58.2463 17.3046 57.2637 17.6712C56.281 18.0232 55.2397 18.1992 54.1397 18.1992H48.5077ZM51.6977 15.1192H53.5897C54.3963 15.1192 55.1297 15.0166 55.7897 14.8112C56.4497 14.5912 57.0143 14.2759 57.4837 13.8652C57.9677 13.4546 58.3343 12.9412 58.5837 12.3253C58.8477 11.6946 58.9797 10.9759 58.9797 10.1693C58.9797 9.11327 58.8037 8.25527 58.4517 7.59528C58.1143 6.92061 57.689 6.39995 57.1757 6.03328C56.677 5.66662 56.1637 5.41729 55.6357 5.28529C55.1077 5.13862 54.6603 5.06529 54.2937 5.06529H51.6977V15.1192ZM69.7042 18.4632C68.5309 18.4632 67.5336 18.2432 66.7123 17.8032C65.9056 17.3632 65.2896 16.7546 64.8643 15.9772C64.4389 15.1999 64.2263 14.3052 64.2263 13.2932C64.2263 12.3253 64.4756 11.4526 64.9743 10.6753C65.4729 9.89793 66.1403 9.28193 66.9763 8.82727C67.8123 8.35794 68.7436 8.12327 69.7702 8.12327C71.1489 8.12327 72.2782 8.5266 73.1582 9.33327C74.0529 10.1253 74.6322 11.2766 74.8962 12.7872L67.4163 15.1632L66.7343 13.4912L72.1462 11.6653L71.5082 11.9513C71.3909 11.5699 71.1782 11.2399 70.8702 10.9613C70.5769 10.6679 70.1296 10.5213 69.5282 10.5213C69.0736 10.5213 68.6703 10.6313 68.3183 10.8513C67.9809 11.0566 67.7169 11.3573 67.5263 11.7533C67.3503 12.1346 67.2623 12.5892 67.2623 13.1172C67.2623 13.7186 67.3723 14.2246 67.5923 14.6352C67.8123 15.0312 68.1129 15.3319 68.4943 15.5372C68.8756 15.7426 69.3009 15.8452 69.7702 15.8452C70.1076 15.8452 70.4302 15.7866 70.7382 15.6692C71.0609 15.5519 71.3762 15.3979 71.6842 15.2072L73.0482 17.4952C72.5349 17.7886 71.9776 18.0232 71.3762 18.1992C70.7896 18.3752 70.2322 18.4632 69.7042 18.4632ZM81.1047 18.3972L75.3407 8.58527H78.9927L82.2707 15.2292L80.3787 15.1632L83.2166 8.58527H86.6486L81.1927 18.3972H81.1047Z" fill="white"/>
</g>
<defs>
<filter id="filter0_dii_3905_16836" x="0.3806" y="-0.512825" width="88.9771" height="27.1034" filterUnits="userSpaceOnUse" color-interpolation-filters="sRGB">
<feFlood flood-opacity="0" result="BackgroundImageFix"/>
<feColorMatrix in="SourceAlpha" type="matrix" values="0 0 0 0 0 0 0 0 0 0 0 0 0 0 0 0 0 0 127 0" result="hardAlpha"/>
<feOffset dy="5.41849"/>
<feGaussianBlur stdDeviation="1.35462"/>
<feComposite in2="hardAlpha" operator="out"/>
<feColorMatrix type="matrix" values="0 0 0 0 0 0 0 0 0 0 0 0 0 0 0 0 0 0 0.2 0"/>
<feBlend mode="normal" in2="BackgroundImageFix" result="effect1_dropShadow_3905_16836"/>
<feBlend mode="normal" in="SourceGraphic" in2="effect1_dropShadow_3905_16836" result="shape"/>
<feColorMatrix in="SourceAlpha" type="matrix" values="0 0 0 0 0 0 0 0 0 0 0 0 0 0 0 0 0 0 127 0" result="hardAlpha"/>
<feOffset dy="-1.35462"/>
<feGaussianBlur stdDeviation="1.01597"/>
<feComposite in2="hardAlpha" operator="arithmetic" k2="-1" k3="1"/>
<feColorMatrix type="matrix" values="0 0 0 0 0 0 0 0 0 0 0 0 0 0 0 0 0 0 0.2 0"/>
<feBlend mode="normal" in2="shape" result="effect2_innerShadow_3905_16836"/>
<feColorMatrix in="SourceAlpha" type="matrix" values="0 0 0 0 0 0 0 0 0 0 0 0 0 0 0 0 0 0 127 0" result="hardAlpha"/>
<feOffset dy="1.35462"/>
<feGaussianBlur stdDeviation="0.677311"/>
<feComposite in2="hardAlpha" operator="arithmetic" k2="-1" k3="1"/>
<feColorMatrix type="matrix" values="0 0 0 0 1 0 0 0 0 1 0 0 0 0 1 0 0 0 0.7 0"/>
<feBlend mode="normal" in2="effect2_innerShadow_3905_16836" result="effect3_innerShadow_3905_16836"/>
</filter>
</defs>
</svg>
