<svg width="11" height="18" viewBox="0 0 11 18" fill="none" xmlns="http://www.w3.org/2000/svg">
<path d="M10.6629 8.4375L0.600448 0.578129C0.574155 0.557429 0.542555 0.544564 0.50928 0.541013C0.476004 0.537462 0.442402 0.543368 0.412332 0.558054C0.382262 0.572739 0.356944 0.595608 0.339285 0.624034C0.321627 0.65246 0.312343 0.68529 0.312502 0.718754V2.4442C0.312502 2.55358 0.363841 2.65849 0.448663 2.72545L8.48438 9L0.448663 15.2746C0.361609 15.3415 0.312502 15.4464 0.312502 15.5558V17.2813C0.312502 17.4308 0.484377 17.5134 0.600448 17.4219L10.6629 9.5625C10.7485 9.49579 10.8177 9.41045 10.8652 9.31298C10.9128 9.21551 10.9376 9.10847 10.9376 9C10.9376 8.89154 10.9128 8.7845 10.8652 8.68703C10.8177 8.58955 10.7485 8.50422 10.6629 8.4375Z" fill="#636260"/>
</svg>
