<svg width="11" height="18" viewBox="0 0 11 18" fill="none" xmlns="http://www.w3.org/2000/svg">
<path d="M10.732 2.44419V0.718743C10.732 0.569189 10.5601 0.4866 10.444 0.578118L0.381519 8.43749C0.296024 8.50398 0.226845 8.58912 0.179258 8.68641C0.131671 8.7837 0.106934 8.89057 0.106934 8.99888C0.106934 9.10718 0.131671 9.21406 0.179258 9.31135C0.226845 9.40864 0.296024 9.49377 0.381519 9.56026L10.444 17.4196C10.5623 17.5112 10.732 17.4286 10.732 17.279V15.5536C10.732 15.4442 10.6806 15.3393 10.5958 15.2723L2.56009 8.99999L10.5958 2.72544C10.6806 2.65847 10.732 2.55356 10.732 2.44419Z" fill="#636260"/>
</svg>
