<svg width="20" height="20" viewBox="0 0 20 20" fill="none" xmlns="http://www.w3.org/2000/svg">
<g clip-path="url(#clip0_715_634)">
<path d="M10 0C4.47768 0 0 4.47768 0 10C0 15.5223 4.47768 20 10 20C15.5223 20 20 15.5223 20 10C20 4.47768 15.5223 0 10 0ZM10 18.3036C5.41518 18.3036 1.69643 14.5848 1.69643 10C1.69643 5.41518 5.41518 1.69643 10 1.69643C14.5848 1.69643 18.3036 5.41518 18.3036 10C18.3036 14.5848 14.5848 18.3036 10 18.3036Z" fill="#DB6400"/>
<path d="M12.4911 5.6409C11.8214 5.05385 10.9375 4.73242 9.99999 4.73242C9.06249 4.73242 8.17856 5.05608 7.50892 5.6409C6.81249 6.25028 6.42856 7.06948 6.42856 7.94671V8.11635C6.42856 8.21457 6.50892 8.29492 6.60713 8.29492H7.67856C7.77677 8.29492 7.85713 8.21457 7.85713 8.11635V7.94671C7.85713 6.96233 8.81918 6.16099 9.99999 6.16099C11.1808 6.16099 12.1428 6.96233 12.1428 7.94671C12.1428 8.6409 11.6518 9.27707 10.8906 9.56948C10.4174 9.75028 10.0156 10.0672 9.72767 10.4824C9.43525 10.9065 9.28347 11.4155 9.28347 11.9311V12.411C9.28347 12.5092 9.36383 12.5896 9.46204 12.5896H10.5335C10.6317 12.5896 10.712 12.5092 10.712 12.411V11.9043C10.7132 11.6876 10.7796 11.4763 10.9027 11.2979C11.0257 11.1195 11.1996 10.9824 11.4018 10.9043C12.7187 10.3976 13.5692 9.23689 13.5692 7.94671C13.5714 7.06948 13.1875 6.25028 12.4911 5.6409ZM9.10713 14.911C9.10713 15.1478 9.2012 15.3749 9.36864 15.5423C9.53608 15.7098 9.76319 15.8039 9.99999 15.8039C10.2368 15.8039 10.4639 15.7098 10.6313 15.5423C10.7988 15.3749 10.8928 15.1478 10.8928 14.911C10.8928 14.6742 10.7988 14.4471 10.6313 14.2796C10.4639 14.1122 10.2368 14.0181 9.99999 14.0181C9.76319 14.0181 9.53608 14.1122 9.36864 14.2796C9.2012 14.4471 9.10713 14.6742 9.10713 14.911Z" fill="#DB6400"/>
</g>
<defs>
<clipPath id="clip0_715_634">
<rect width="20" height="20" fill="white"/>
</clipPath>
</defs>
</svg>
