<svg width="18" height="16" viewBox="0 0 18 16" fill="none" xmlns="http://www.w3.org/2000/svg">
<path d="M16.9687 7.45996L8.53565 0.140764C8.47091 0.0849608 8.38832 0.0537109 8.30127 0.0537109H6.32582C6.16065 0.0537109 6.08475 0.259068 6.20975 0.366211L14.0267 7.15193H0.964216C0.866002 7.15193 0.785645 7.23228 0.785645 7.3305V8.66978C0.785645 8.768 0.866002 8.84835 0.964216 8.84835H14.0245L6.20752 15.6341C6.08252 15.7434 6.15841 15.9466 6.32359 15.9466H8.366C8.40841 15.9466 8.45082 15.9309 8.48207 15.9019L16.9687 8.54032C17.046 8.47312 17.1079 8.39013 17.1504 8.29694C17.1928 8.20376 17.2148 8.10254 17.2148 8.00014C17.2148 7.89774 17.1928 7.79652 17.1504 7.70334C17.1079 7.61015 17.046 7.52716 16.9687 7.45996Z" fill="white"/>
</svg>
