<svg width="320" height="650" viewBox="0 0 320 650" fill="none" xmlns="http://www.w3.org/2000/svg">
<path fill-rule="evenodd" clip-rule="evenodd" d="M54 0C25.8335 0 3 22.8335 3 51V122C1.34315 122 0 123.343 0 125V145C0 146.657 1.34315 148 3 148V171C1.34315 171 0 172.343 0 174V217C0 218.657 1.34315 220 3 220V234C1.34315 234 0 235.343 0 237V280C0 281.657 1.34315 283 3 283V599C3 627.167 25.8335 650 54 650H266C294.167 650 317 627.167 317 599V283C318.657 283 320 281.657 320 280V208C320 206.343 318.657 205 317 205V51C317 22.8335 294.167 0 266 0H54ZM266 12H54C32.4609 12 15 29.4609 15 51V599C15 620.539 32.4609 638 54 638H266C287.539 638 305 620.539 305 599V51C305 29.4609 287.539 12 266 12Z" fill="black"/>
</svg>
