<svg width="24" height="18" viewBox="0 0 24 18" fill="none" xmlns="http://www.w3.org/2000/svg">
<path d="M23.5234 8.30865C20.9841 2.95954 17.1457 0.267578 12.0002 0.267578C6.85194 0.267578 3.01623 2.95954 0.476941 8.31133C0.375089 8.527 0.322266 8.76255 0.322266 9.00106C0.322266 9.23957 0.375089 9.47512 0.476941 9.69079C3.01623 15.0399 6.85462 17.7319 12.0002 17.7319C17.1484 17.7319 20.9841 15.0399 23.5234 9.68812C23.7296 9.25419 23.7296 8.75062 23.5234 8.30865ZM12.0002 15.8033C7.67962 15.8033 4.51623 13.6122 2.28498 8.99972C4.51623 4.38722 7.67962 2.19615 12.0002 2.19615C16.3207 2.19615 19.4841 4.38722 21.7153 8.99972C19.4868 13.6122 16.3234 15.8033 12.0002 15.8033ZM11.893 4.28544C9.28944 4.28544 7.17873 6.39615 7.17873 8.99972C7.17873 11.6033 9.28944 13.714 11.893 13.714C14.4966 13.714 16.6073 11.6033 16.6073 8.99972C16.6073 6.39615 14.4966 4.28544 11.893 4.28544ZM11.893 11.9997C10.235 11.9997 8.89301 10.6578 8.89301 8.99972C8.89301 7.34169 10.235 5.99972 11.893 5.99972C13.551 5.99972 14.893 7.34169 14.893 8.99972C14.893 10.6578 13.551 11.9997 11.893 11.9997Z" fill="#636260"/>
</svg>
